# xmcd CD database file
#
# Track frame offsets:
#	180
#	23119
#	40761
#	58209
#	77762
#	98836
#	113072
#	134755
#	152137
#	166101
#	185883
#	204043
#
# Disc length: 3031 seconds
#
# Revision: 1
# Processed by: cddbd v1.5.2PL0 Copyright (c) Steve Scherf et al.
# Submitted via: CDex 1.51
#
DISCID=9c0bd50c
DTITLE=Orquesta Barracuda - San Andres Islas
DYEAR=1900
DGENRE=Merengue
TTITLE0=Seven Colors (Socca)
TTITLE1=Socca (Socca)
TTITLE2=Naturaleza (Reggae)
TTITLE3=Mujer (Merengue)
TTITLE4=Mosaico Alegre (Porros)
TTITLE5=Cumbia Del Mar (Cumbia)
TTITLE6=Sobregiro (Merengue)
TTITLE7=Sube Al Avion (Son Caribeño)
TTITLE8=Esta Nota (Bachata)
TTITLE9=Catherine (Merengue)
TTITLE10=Blanco Y Negro (Reggae)
TTITLE11=Magia Caribe (Balada Rock)
EXTD=
EXTT0=
EXTT1=
EXTT2=
EXTT3=
EXTT4=
EXTT5=
EXTT6=
EXTT7=
EXTT8=
EXTT9=
EXTT10=
EXTT11=
PLAYORDER=
